<?xml version="1.0" encoding="utf-8"?>
<!-- Generator: Adobe Illustrator 25.2.1, SVG Export Plug-In . SVG Version: 6.00 Build 0)  -->
<svg version="1.1" id="Réteg_1" xmlns="http://www.w3.org/2000/svg" xmlns:xlink="http://www.w3.org/1999/xlink" x="0px" y="0px"
	 viewBox="0 0 355 211" style="enable-background:new 0 0 355 211;" xml:space="preserve">
<style type="text/css">
	.st0{fill:#D3E8EE;}
	.st1{fill:#368496;}
</style>
<g id="D">
</g>
<g id="D_1_">
</g>
<path class="st0" d="M210.5,174L210.5,174L337.8,46.7c5.4-5.4,5.4-14.2,0-19.6l-13.4-13.4c-5.4-5.4-14.2-5.4-19.6,0l-121,121
	c-3.5,3.5-9.2,3.5-12.7,0L50.2,13.7c-5.4-5.4-14.2-5.4-19.6,0L17.2,27.2c-5.4,5.4-5.4,14.2,0,19.6L144.5,174v0l23.2,23.2
	c5.4,5.4,14.2,5.4,19.6,0L210.5,174z"/>
<path class="st1" d="M262.3,11.8"/>
<path class="st1" d="M93.2,11.8"/>
</svg>
