<?xml version="1.0" encoding="utf-8"?>
<!-- Generator: Adobe Illustrator 25.2.1, SVG Export Plug-In . SVG Version: 6.00 Build 0)  -->
<svg version="1.1" xmlns="http://www.w3.org/2000/svg" xmlns:xlink="http://www.w3.org/1999/xlink" x="0px" y="0px"
	 viewBox="0 0 355 366.2" style="enable-background:new 0 0 355 366.2;" xml:space="preserve">
<style type="text/css">
	.st0{fill:#D2E8EE;}
</style>
<g id="Réteg_1">
	<g>
		<path class="st0" d="M23.7,33.6v19c0,7.6,6.2,13.8,13.8,13.8l279.9,0c7.6,0,13.8-6.2,13.8-13.8v-19c0-7.6-6.2-13.8-13.8-13.8H37.6
			C29.9,19.8,23.7,26,23.7,33.6z"/>
		<path class="st0" d="M23.7,126.9v19c0,7.6,6.2,13.8,13.8,13.8l279.9,0c7.6,0,13.8-6.2,13.8-13.8v-19c0-7.6-6.2-13.8-13.8-13.8
			H37.6C29.9,113.1,23.7,119.3,23.7,126.9z"/>
		<path class="st0" d="M23.7,220.2v19c0,7.6,6.2,13.8,13.8,13.8l279.9,0c7.6,0,13.8-6.2,13.8-13.8v-19c0-7.6-6.2-13.8-13.8-13.8
			H37.6C29.9,206.4,23.7,212.6,23.7,220.2z"/>
		<path class="st0" d="M23.7,313.6v19c0,7.6,6.2,13.8,13.8,13.8l279.9,0c7.6,0,13.8-6.2,13.8-13.8v-19c0-7.6-6.2-13.8-13.8-13.8
			H37.6C29.9,299.7,23.7,305.9,23.7,313.6z"/>
	</g>
</g>
<g id="D">
</g>
</svg>
