<?xml version="1.0" encoding="utf-8"?>
<!-- Generator: Adobe Illustrator 25.2.1, SVG Export Plug-In . SVG Version: 6.00 Build 0)  -->
<svg version="1.1" id="Layer_1" xmlns="http://www.w3.org/2000/svg" xmlns:xlink="http://www.w3.org/1999/xlink" x="0px" y="0px"
	 viewBox="0 0 37.1 37.1" style="enable-background:new 0 0 37.1 37.1;" xml:space="preserve">
<style type="text/css">
	.st0{fill-rule:evenodd;clip-rule:evenodd;fill:#D3E8EE;}
</style>
<path class="st0" d="M18.5,0.9C8.6,0.9,0.5,9,0.5,19c0,8,5.2,14.7,12.4,17.1c0.9,0.2,1.2-0.4,1.2-0.9c0-0.4,0-1.6,0-3.1
	C9,33.3,8,29.8,8,29.8c-0.8-2.1-2-2.6-2-2.6C4.3,26,6.1,26,6.1,26c1.8,0.1,2.8,1.9,2.8,1.9c1.6,2.8,4.2,2,5.3,1.5
	c0.2-1.2,0.6-2,1.1-2.4C11.2,26.5,7,25,7,18c0-2,0.7-3.6,1.9-4.8c-0.2-0.5-0.8-2.3,0.2-4.8c0,0,1.5-0.5,5,1.9c1.4-0.4,3-0.6,4.5-0.6
	s3.1,0.2,4.5,0.6c3.4-2.3,5-1.9,5-1.9c1,2.5,0.4,4.3,0.2,4.8c1.2,1.3,1.9,2.9,1.9,4.8c0,6.9-4.2,8.5-8.2,8.9
	c0.6,0.6,1.2,1.7,1.2,3.3c0,2.4,0,4.4,0,5c0,0.5,0.3,1,1.2,0.9c7-2.4,12.2-9.1,12.2-17.1C36.6,9,28.5,0.9,18.5,0.9z"/>
</svg>
