<?xml version="1.0" encoding="utf-8"?>
<!-- Generator: Adobe Illustrator 25.2.1, SVG Export Plug-In . SVG Version: 6.00 Build 0)  -->
<svg version="1.1" id="Réteg_1" xmlns="http://www.w3.org/2000/svg" xmlns:xlink="http://www.w3.org/1999/xlink" x="0px" y="0px"
	 viewBox="0 0 589.3 448.2" style="enable-background:new 0 0 589.3 448.2;" xml:space="preserve">
<style type="text/css">
	.st0{fill:#D3E7EE;}
</style>
<g id="D">
</g>
<g id="D_1_">
</g>
<path class="st0" d="M17.8,28.3v391.6c0,7.6,6.2,13.8,13.8,13.8h526c7.6,0,13.8-6.2,13.8-13.8V28.3c0-7.6-6.2-13.8-13.8-13.8h-526
	C24,14.4,17.8,20.6,17.8,28.3z M289,252.6l-183-183c-3.1-3.1-0.9-8.5,3.5-8.5h370.2c4.5,0,6.7,5.4,3.5,8.5l-183,183
	C297.2,255.8,292.1,255.8,289,252.6z M64.5,379.1V106.2c0-4.5,5.4-6.7,8.5-3.5l215.1,215.1l0.1-0.1v0c3.6,3.6,9.5,3.6,13.1,0
	l215.1-215.1c3.1-3.1,8.5-0.9,8.5,3.5v272.9c0,4.4-3.6,8-8,8H72.5C68,387.1,64.5,383.5,64.5,379.1z"/>
</svg>
