<?xml version="1.0" encoding="utf-8"?>
<!-- Generator: Adobe Illustrator 25.2.1, SVG Export Plug-In . SVG Version: 6.00 Build 0)  -->
<svg version="1.1" id="Réteg_1" xmlns="http://www.w3.org/2000/svg" xmlns:xlink="http://www.w3.org/1999/xlink" x="0px" y="0px"
	 viewBox="0 0 589.3 407.5" style="enable-background:new 0 0 589.3 407.5;" xml:space="preserve">
<style type="text/css">
	.st0{fill:#D3E7EE;}
</style>
<g id="D">
</g>
<g id="D_1_">
</g>
<g>
	<path class="st0" d="M450.5,127.6L450.5,127.6L302.2,275.9c-3.6,3.6-9.5,3.6-13.1,0L289,276L140.5,127.5v0l-109-109
		c-5-5-13.7-1.5-13.7,5.7v353.5c0,7.6,6.2,13.8,13.8,13.8h526c7.6,0,13.8-6.2,13.8-13.8V25.9c0-7.1-8.6-10.7-13.7-5.7L450.5,127.6z"
		/>
	<path class="st0" d="M476.6,16.1H114.5c-7.1,0-10.7,8.6-5.7,13.7l31.7,31.7v-0.1l149.4,149.4c3.1,3.2,8.2,3.2,11.2,0L450.5,61.4
		v0.2l31.8-31.8C487.3,24.7,483.8,16.1,476.6,16.1z"/>
</g>
</svg>
