<?xml version="1.0" encoding="utf-8"?>
<!-- Generator: Adobe Illustrator 25.2.1, SVG Export Plug-In . SVG Version: 6.00 Build 0)  -->
<svg version="1.1" id="Layer_1" xmlns="http://www.w3.org/2000/svg" xmlns:xlink="http://www.w3.org/1999/xlink" x="0px" y="0px"
	 viewBox="0 0 37.1 37.1" style="enable-background:new 0 0 37.1 37.1;" xml:space="preserve">
<style type="text/css">
	.st0{fill:#D3E8EE;}
</style>
<path class="st0" d="M18.5,0.4c-10,0-18.2,8.1-18.2,18.2s8.1,18.2,18.2,18.2s18.2-8.1,18.2-18.2S28.6,0.4,18.5,0.4z M11.7,8.5
	c1.3,0,2.1,0.8,2.1,2s-0.8,2-2.3,2c-1.3,0-2.1-0.8-2.1-2S10.3,8.5,11.7,8.5z M14,26.1H9.4V14H14V26.1z M29.1,26.1h-4.3v-6.6
	c0-1.8-1.1-2.3-1.6-2.3s-1.9,0.3-1.9,2.3c0,0.3,0,6.6,0,6.6H17V14h4.4v1.7c0.6-1,1.7-1.7,3.8-1.7s3.8,1.7,3.8,5.5v6.6H29.1z"/>
</svg>
