<?xml version="1.0" encoding="utf-8"?>
<!-- Generator: Adobe Illustrator 25.2.1, SVG Export Plug-In . SVG Version: 6.00 Build 0)  -->
<svg version="1.1" id="Layer_1" xmlns="http://www.w3.org/2000/svg" xmlns:xlink="http://www.w3.org/1999/xlink" x="0px" y="0px"
	 viewBox="0 0 37.1 37.1" style="enable-background:new 0 0 37.1 37.1;" xml:space="preserve">
<style type="text/css">
	.st0{fill:#D3E8EE;}
</style>
<path class="st0" d="M18.5,0.5c-10,0-18.1,8.1-18.1,18.1s8.1,18.1,18.1,18.1s18.1-8.1,18.1-18.1S28.5,0.5,18.5,0.5z M8.8,18.3
	l0.1-0.1l4.7-7.3c0.1-0.1,0.2-0.1,0.3,0c0.8,1.8,1.4,3.9,1.2,5.3c-0.1,0.6-0.5,1.3-0.9,2c0,0.1-0.1,0.2-0.2,0.3c0,0-0.1,0.1-0.1,0.1
	H8.9C8.8,18.5,8.7,18.4,8.8,18.3z M29.7,20.8c0,0.1,0,0.1-0.1,0.1c-0.4,0.1-1.6,0.7-2.1,1.4c-1.3,1.8-2.4,4.5-4.6,4.5h-9.4
	c-3.3,0-6-2.7-6-6.1v-0.1c0-0.1,0.1-0.1,0.1-0.1h5.3c0.1,0,0.2,0.1,0.2,0.2c0,0.3,0,0.7,0.2,1c0.3,0.7,1,1,1.7,1h2.6v-2h-2.6
	c-0.1,0-0.2-0.1-0.1-0.3c0,0,0.1-0.1,0.1-0.1c0.3-0.4,0.6-0.9,0.9-1.5c0.3-0.4,0.5-0.9,0.7-1.3c0-0.1,0.1-0.1,0.1-0.3
	c0-0.1,0.1-0.3,0.1-0.4c0-0.1,0.1-0.2,0.1-0.3c0.1-0.4,0.1-0.8,0.1-1.2c0-0.1,0-0.3,0-0.5c0-0.2,0-0.4,0-0.5c0-0.1,0-0.3-0.1-0.5
	c0-0.3-0.1-0.5-0.1-0.7l0-0.1c0-0.1-0.1-0.3-0.1-0.5c-0.1-0.5-0.3-1-0.5-1.4c-0.1-0.2-0.1-0.4-0.2-0.5c-0.1-0.3-0.2-0.5-0.3-0.7
	c0-0.1-0.1-0.2-0.1-0.3c0-0.1-0.1-0.2-0.1-0.3C15.1,9.2,15,9.1,15,9l-0.3-0.6c0-0.1,0-0.2,0.1-0.1l2,0.5L17,8.9L17.3,9l0.1,0V7.8
	c0-0.6,0.5-1,1-1c0.3,0,0.5,0.1,0.7,0.3c0.2,0.2,0.3,0.4,0.3,0.7v1.7l0.2,0.1c0,0,0,0,0,0c0,0,0.1,0.1,0.2,0.2
	c0.1,0.1,0.1,0.1,0.3,0.2c0.2,0.1,0.4,0.4,0.7,0.6c0.1,0.1,0.1,0.1,0.2,0.2c0.3,0.3,0.7,0.7,1,1c0.1,0.1,0.2,0.2,0.3,0.3
	c0.1,0.1,0.2,0.3,0.3,0.4c0.1,0.1,0.3,0.3,0.4,0.5c0,0.1,0.1,0.1,0.1,0.3c0.1,0.2,0.3,0.4,0.4,0.7c0,0.1,0.1,0.2,0.1,0.3
	c0.1,0.3,0.3,0.6,0.3,0.9c0,0.1,0,0.1,0,0.2c0,0.1,0,0.2,0,0.3c0,0.3,0,0.6,0,0.9c0,0.1-0.1,0.3-0.1,0.4c0,0.1-0.1,0.3-0.1,0.4
	c-0.1,0.3-0.3,0.5-0.4,0.8c0,0.1-0.1,0.2-0.2,0.3c-0.1,0.1-0.1,0.2-0.2,0.3c-0.1,0.1-0.2,0.2-0.3,0.3c-0.1,0.1-0.1,0.2-0.3,0.3
	c-0.1,0.1-0.3,0.3-0.4,0.4C22.1,19.9,22,20,21.9,20c-0.1,0.1-0.1,0.2-0.3,0.3c-0.1,0.1-0.2,0.2-0.3,0.3l-0.2,0.2c0,0-0.1,0-0.1,0
	h-1.6v2h2c0.4,0,0.9-0.1,1.2-0.4c0.1-0.1,0.6-0.5,1.2-1.2c0,0,0,0,0.1,0l5.6-1.7c0.1,0,0.2,0.1,0.2,0.2V20.8z"/>
</svg>
