<?xml version="1.0" encoding="utf-8"?>
<!-- Generator: Adobe Illustrator 25.2.1, SVG Export Plug-In . SVG Version: 6.00 Build 0)  -->
<svg version="1.1" id="Layer_1" xmlns="http://www.w3.org/2000/svg" xmlns:xlink="http://www.w3.org/1999/xlink" x="0px" y="0px"
	 viewBox="0 0 37.1 37.1" style="enable-background:new 0 0 37.1 37.1;" xml:space="preserve">
<style type="text/css">
	.st0{fill:#D2E8EE;}
</style>
<path class="st0" d="M31.3,0.3H5.8c-3,0-5.5,2.4-5.5,5.5v25.5c0,3,2.4,5.5,5.5,5.5h25.5c3,0,5.5-2.4,5.5-5.5V5.8
	C36.8,2.7,34.3,0.3,31.3,0.3z M18.1,9.4l8.2,6.9l-1.4,1.6L16.7,11L18.1,9.4z M14.9,13.9l9.7,4.6l-0.9,1.9L14,15.8L14.9,13.9z
	 M13.1,18.7l10.5,2.2L23.2,23l-10.5-2.2L13.1,18.7z M12.4,23.5h10.7v2.1H12.4V23.5z M27.4,30H8.1v-8.5h2.1v6.4h15v-6.4h2.1V30z
	 M26.7,15.8l-6.4-8.6L22,6l6.4,8.6L26.7,15.8z"/>
</svg>
