<?xml version="1.0" encoding="utf-8"?>
<!-- Generator: Adobe Illustrator 25.2.1, SVG Export Plug-In . SVG Version: 6.00 Build 0)  -->
<svg version="1.1" xmlns="http://www.w3.org/2000/svg" xmlns:xlink="http://www.w3.org/1999/xlink" x="0px" y="0px"
	 viewBox="0 0 412.6 425.5" style="enable-background:new 0 0 412.6 425.5;" xml:space="preserve">
<style type="text/css">
	.st0{fill:#D2E8EE;}
</style>
<g id="Réteg_1">
	<path class="st0" d="M35.6,410.6c-7.6,0-13.8-6.2-13.8-13.8v-368c0-7.6,6.2-13.8,13.8-13.8l28.7,0c4.7,0,9.2,2.4,11.7,6.4
		l132.7,210c3.2,5,10.9,2.8,10.9-3.2l0-119.6c0-6.5,6.2-11.2,12.4-9.5c8.6,2.3,17.1,5.3,26.5,9.8c4.7,2.3,7.8,7.1,7.8,12.3
		c0,33.3-1.3,154.2-1.3,185.3c0,4.6-2.3,9-6.2,11.5c-9.2,5.9-19.4,10.6-30,14.2c-5.4,1.8-12.5-0.8-15.8-5.8L78.7,114.4
		c-2.8-4.6-10.2-3-10.2,2.8l0,238.2c0,5.5,4.4,9.9,9.9,9.9l114.8,0.1c85.9,0,155.2-71.9,151-158.7c-3.6-73.4-68.3-138.9-141.7-143.4
		c-20.7-1.3-34.7-1.7-53,4.7c-4.4,1.5-9.2-0.1-11.7-4l-14.6-23.1c-3.3-5.3-1-12.2,4.8-14.5c22.9-9,44.3-10.6,71.8-9.7
		c104.9,3.4,189.5,89.7,191,194.6c1.6,110.3-87.7,199.3-197.6,199.3H35.6z"/>
</g>
<g id="D">
</g>
</svg>
